<svg width="435" height="74" viewBox="0 0 435 74" fill="none" xmlns="http://www.w3.org/2000/svg">
<path d="M30.5529 10.0193L38.0696 17.9725H24.4755L16.9591 10.0193L7.59912 0.11557H21.1932H63.1942V0.132874C63.8969 0.116974 63.4992 0.108765 63.8311 0.108765V0.128357C71.2349 0.128357 77.9227 2.43857 82.8555 6.69507C87.9179 11.0636 91.0712 17.3749 91.2336 25.247C91.2501 26.0512 91.2583 25.4814 91.2583 25.8704C91.2583 33.436 88.3684 39.3491 84.2252 43.5923C80.0376 47.8811 74.5327 50.4056 69.4471 51.1738L89.115 71.9844H75.5215L56.092 51.4261H25.2578C22.5229 51.4261 20.306 49.2091 20.306 46.4743C20.306 43.7397 22.5229 41.5224 25.2578 41.5224H46.7322H60.3261H66.189C69.7246 41.5224 74.0081 39.9197 77.1454 36.7061C79.6252 34.1665 81.3549 30.5634 81.3549 25.8704C81.3549 25.1282 81.3781 25.8956 81.3688 25.4406C81.2687 20.5829 79.397 16.7521 76.3951 14.1618C73.2637 11.4599 68.847 9.99316 63.8311 9.99316V10.0125C63.0618 10.0125 63.6999 9.99116 63.2908 9.99966L63.1942 10.0193H30.5529Z" fill="#033C1E"/>
<path d="M76.6987 30.8906H33.8842H29.8791C19.5111 30.8906 9.9037 34.6017 9.9037 46.567H9.88641C10.0885 55.2975 16.8738 62.0808 25.6138 62.0808H38.7983H60.4205L69.8547 71.9844H29.5636H25.6138C11.4641 71.9844 0.270701 60.7737 0.0195007 46.6444L0 46.567C0 28.7317 13.7633 20.9869 29.8791 20.9869H33.8842H76.6896C78.061 24.0472 77.9383 27.3393 76.6987 30.8906ZM85.6012 62.0808H95.5216C104.262 62.0808 111.047 55.2975 111.249 46.567H111.232C111.232 35.758 103.392 31.6857 94.2332 30.9994C95.2934 27.906 95.1358 23.4454 94.4932 21.0955C109.172 22.0831 121.135 29.9393 121.135 46.567L121.116 46.6444C120.865 60.7737 109.671 71.9844 95.5216 71.9844H94.8291L85.6012 62.0808Z" fill="#93C11C"/>
<path d="M142.87 49.0897H139.727C137.151 49.0897 135.868 47.8535 135.868 45.4038V4.95001C135.868 2.48841 137.151 1.2522 139.727 1.2522H159.325C163.161 1.2522 166.397 2.80051 169.042 5.89731C171.561 8.80911 172.832 12.2988 172.832 16.3895C172.832 20.4683 171.561 23.9693 169.042 26.8811C167.436 28.7763 165.507 30.1046 163.253 30.8788C164.605 32.0231 165.749 33.6411 166.673 35.7209L172.497 49.0897H168.026C165.923 49.0897 164.559 48.3388 163.924 46.8597L158.273 33.9178C157.557 32.3233 156.159 31.5146 154.079 31.5146H142.87V49.0897ZM142.87 8.26602V24.5125H159.325C160.989 24.5125 162.468 23.7729 163.762 22.3057C165.137 20.7112 165.818 18.7349 165.818 16.3895C165.818 14.0435 165.137 12.0678 163.762 10.4614C162.468 8.9942 160.989 8.26602 159.325 8.26602H142.87ZM188.201 28.7752V36.738C188.201 38.5403 188.767 39.9264 189.888 40.8976C190.789 41.683 191.886 42.0759 193.181 42.0759H208.849C211.426 42.0759 212.709 43.3127 212.709 45.7737V49.0897H193.146C190.072 49.0897 187.427 48.1656 185.219 46.3165C182.539 44.0982 181.186 40.9089 181.186 36.738V28.7803C183.395 28.5085 185.786 28.5646 188.201 28.7752ZM181.186 21.1681V13.6161C181.186 9.45622 182.539 6.267 185.219 4.0253C187.427 2.1763 190.072 1.2522 193.146 1.2522H212.709V4.56821C212.709 7.02981 211.426 8.26602 208.849 8.26602H193.181C191.886 8.26602 190.789 8.65882 189.888 9.44492C188.767 10.4382 188.201 11.8249 188.201 13.6161V20.6636C186.078 20.4785 184.15 20.4654 182.525 20.8033C182.067 20.8986 181.62 21.0202 181.186 21.1681ZM246.357 8.26602H229.325V21.6353H246.357C248.252 21.6353 249.708 20.9768 250.736 19.6476C251.765 18.3307 252.273 16.7591 252.273 14.9331C252.273 13.1537 251.765 11.5938 250.736 10.265C249.708 8.92451 248.252 8.26602 246.357 8.26602ZM229.325 28.6377V42.0759H246.357C248.252 42.0759 249.708 41.4174 250.736 40.1002C251.765 38.7832 252.273 37.2114 252.273 35.3737C252.273 33.5714 251.765 31.9999 250.736 30.6597C249.708 29.3075 248.252 28.6377 246.357 28.6377H229.325ZM246.357 49.0897H226.182C223.605 49.0897 222.323 47.8535 222.323 45.4038V4.95001C222.323 2.48841 223.605 1.2522 226.182 1.2522H246.357C250.101 1.2522 253.186 2.5695 255.624 5.181C258.062 7.8039 259.287 11.0507 259.287 14.9331C259.287 19.1045 257.935 22.5135 255.22 25.1596C257.935 27.8403 259.287 31.2493 259.287 35.3737C259.287 39.3031 258.062 42.5612 255.624 45.1609C253.186 47.7843 250.101 49.0897 246.357 49.0897ZM275.903 28.6377V36.738C275.903 38.5403 276.469 39.9264 277.59 40.8976C278.491 41.683 279.589 42.0759 280.883 42.0759H296.552C299.128 42.0759 300.411 43.3127 300.411 45.7737V49.0897H280.848C277.775 49.0897 275.129 48.1656 272.922 46.3165C270.241 44.0982 268.889 40.9089 268.889 36.738V13.6161C268.889 9.45622 270.241 6.267 272.922 4.0253C275.129 2.1763 277.775 1.2522 280.848 1.2522H300.411V4.56821C300.411 7.02981 299.128 8.26602 296.552 8.26602H280.883C279.589 8.26602 278.491 8.65882 277.59 9.44492C276.469 10.4382 275.903 11.8249 275.903 13.6161V21.6353H300.411V24.9513C300.411 27.4129 299.128 28.6377 296.552 28.6377H275.903ZM315.745 24.7781V33.144C315.745 35.7901 316.842 38.1015 319.061 40.0883C321.361 42.1337 324.179 43.1622 327.519 43.1622C330.835 43.1622 333.666 42.1337 335.988 40.0883C336.439 39.6727 336.821 39.2798 337.133 38.8986C338.45 37.2689 340.068 36.9339 342.009 37.8818L344.956 39.372C343.962 41.6252 342.506 43.6015 340.588 45.2998C336.959 48.5239 332.604 50.1416 327.519 50.1416C322.4 50.1416 318.032 48.5239 314.427 45.2998C310.649 41.9373 308.765 37.8818 308.765 33.144V24.7781V23.7383V17.1291C308.765 12.3685 310.649 8.32381 314.427 4.97321C318.055 1.72561 322.423 0.10791 327.519 0.10791C332.58 0.10791 336.936 1.72561 340.588 4.97321C342.506 6.67151 343.962 8.63561 344.956 10.8662L342.009 12.3566C340.091 13.3505 338.473 13.027 337.133 11.3742C336.821 11.0161 336.439 10.6233 335.988 10.1958C333.666 8.139 330.835 7.11081 327.519 7.11081C324.179 7.11081 321.361 8.139 319.061 10.1958C316.842 12.1602 315.745 14.471 315.745 17.1291V23.7383V24.7781ZM358.741 24.7781V33.144C358.741 35.7901 359.839 38.1015 362.057 40.0883C364.356 42.1337 367.175 43.1622 370.515 43.1622C373.831 43.1622 376.662 42.1337 378.985 40.0883C379.436 39.6727 379.817 39.2798 380.129 38.8986C381.446 37.2689 383.064 36.9339 385.005 37.8818L387.952 39.372C386.958 41.6252 385.502 43.6015 383.584 45.2998C379.955 48.5239 375.599 50.1416 370.515 50.1416C365.396 50.1416 361.028 48.5239 357.423 45.2998C353.645 41.9373 351.762 37.8818 351.762 33.144V24.7781V23.7383V17.1291C351.762 12.3685 353.645 8.32381 357.423 4.97321C361.052 1.72561 365.42 0.10791 370.515 0.10791C375.577 0.10791 379.932 1.72561 383.584 4.97321C385.502 6.67151 386.958 8.63561 387.952 10.8662L385.005 12.3566C383.087 13.3505 381.469 13.027 380.129 11.3742C379.817 11.0161 379.436 10.6233 378.985 10.1958C376.662 8.139 373.831 7.11081 370.515 7.11081C367.175 7.11081 364.356 8.139 362.057 10.1958C359.839 12.1602 358.741 14.471 358.741 17.1291V23.7383V24.7781ZM413.246 9.07471H411.721L404.845 28.5102H420.121L413.246 9.07471ZM422.582 35.478H402.338L397.531 49.0897H393.198C392.227 49.0897 391.58 48.7663 391.245 48.1078C390.968 47.4949 390.968 46.7673 391.245 45.9123L405.862 4.63791C406.266 3.47091 407.11 2.56951 408.381 1.96851C409.664 1.35601 411.016 1.05582 412.46 1.05582C413.881 1.05582 415.233 1.35601 416.516 1.96851C417.787 2.56951 418.642 3.47091 419.069 4.63791L434.842 49.0897H430.105C428.301 49.0897 427.089 48.2112 426.476 46.4441L422.582 35.478Z" fill="#033C1E"/>
<path d="M142.87 49.0897H139.727C137.151 49.0897 135.868 47.8535 135.868 45.4038V4.95001C135.868 2.48841 137.151 1.2522 139.727 1.2522H159.325C163.161 1.2522 166.397 2.80051 169.042 5.89731C171.561 8.80911 172.832 12.2988 172.832 16.3895C172.832 20.4683 171.561 23.9693 169.042 26.8811C167.436 28.7763 165.507 30.1046 163.253 30.8788C164.605 32.0231 165.749 33.6411 166.673 35.7209L172.497 49.0897H168.026C165.923 49.0897 164.559 48.3388 163.924 46.8597L158.273 33.9178C157.557 32.3233 156.159 31.5146 154.079 31.5146H142.87V49.0897ZM142.87 8.26602V24.5125H159.325C160.989 24.5125 162.468 23.7729 163.762 22.3057C165.137 20.7112 165.818 18.7349 165.818 16.3895C165.818 14.0435 165.137 12.0678 163.762 10.4614C162.468 8.9942 160.989 8.26602 159.325 8.26602H142.87ZM188.201 28.7752V36.738C188.201 38.5403 188.767 39.9264 189.888 40.8976C190.789 41.683 191.886 42.0759 193.181 42.0759H208.849C211.426 42.0759 212.709 43.3127 212.709 45.7737V49.0897H193.146C190.072 49.0897 187.427 48.1656 185.219 46.3165C182.539 44.0982 181.186 40.9089 181.186 36.738V28.7803C183.395 28.5085 185.786 28.5646 188.201 28.7752ZM181.186 21.1681V13.6161C181.186 9.45622 182.539 6.267 185.219 4.0253C187.427 2.1763 190.072 1.2522 193.146 1.2522H212.709V4.56821C212.709 7.02981 211.426 8.26602 208.849 8.26602H193.181C191.886 8.26602 190.789 8.65882 189.888 9.44492C188.767 10.4382 188.201 11.8249 188.201 13.6161V20.6636C186.078 20.4785 184.15 20.4654 182.525 20.8033C182.067 20.8986 181.62 21.0202 181.186 21.1681ZM246.357 8.26602H229.325V21.6353H246.357C248.252 21.6353 249.708 20.9768 250.736 19.6476C251.765 18.3307 252.273 16.7591 252.273 14.9331C252.273 13.1537 251.765 11.5938 250.736 10.265C249.708 8.92451 248.252 8.26602 246.357 8.26602ZM229.325 28.6377V42.0759H246.357C248.252 42.0759 249.708 41.4174 250.736 40.1002C251.765 38.7832 252.273 37.2114 252.273 35.3737C252.273 33.5714 251.765 31.9999 250.736 30.6597C249.708 29.3075 248.252 28.6377 246.357 28.6377H229.325ZM246.357 49.0897H226.182C223.605 49.0897 222.323 47.8535 222.323 45.4038V4.95001C222.323 2.48841 223.605 1.2522 226.182 1.2522H246.357C250.101 1.2522 253.186 2.5695 255.624 5.181C258.062 7.8039 259.287 11.0507 259.287 14.9331C259.287 19.1045 257.935 22.5135 255.22 25.1596C257.935 27.8403 259.287 31.2493 259.287 35.3737C259.287 39.3031 258.062 42.5612 255.624 45.1609C253.186 47.7843 250.101 49.0897 246.357 49.0897ZM275.903 28.6377V36.738C275.903 38.5403 276.469 39.9264 277.59 40.8976C278.491 41.683 279.589 42.0759 280.883 42.0759H296.552C299.128 42.0759 300.411 43.3127 300.411 45.7737V49.0897H280.848C277.775 49.0897 275.129 48.1656 272.922 46.3165C270.241 44.0982 268.889 40.9089 268.889 36.738V13.6161C268.889 9.45622 270.241 6.267 272.922 4.0253C275.129 2.1763 277.775 1.2522 280.848 1.2522H300.411V4.56821C300.411 7.02981 299.128 8.26602 296.552 8.26602H280.883C279.589 8.26602 278.491 8.65882 277.59 9.44492C276.469 10.4382 275.903 11.8249 275.903 13.6161V21.6353H300.411V24.9513C300.411 27.4129 299.128 28.6377 296.552 28.6377H275.903ZM315.745 24.7781V33.144C315.745 35.7901 316.842 38.1015 319.061 40.0883C321.361 42.1337 324.179 43.1622 327.519 43.1622C330.835 43.1622 333.666 42.1337 335.988 40.0883C336.439 39.6727 336.821 39.2798 337.133 38.8986C338.45 37.2689 340.068 36.9339 342.009 37.8818L344.956 39.372C343.962 41.6252 342.506 43.6015 340.588 45.2998C336.959 48.5239 332.604 50.1416 327.519 50.1416C322.4 50.1416 318.032 48.5239 314.427 45.2998C310.649 41.9373 308.765 37.8818 308.765 33.144V24.7781V23.7383V17.1291C308.765 12.3685 310.649 8.32381 314.427 4.97321C318.055 1.72561 322.423 0.10791 327.519 0.10791C332.58 0.10791 336.936 1.72561 340.588 4.97321C342.506 6.67151 343.962 8.63561 344.956 10.8662L342.009 12.3566C340.091 13.3505 338.473 13.027 337.133 11.3742C336.821 11.0161 336.439 10.6233 335.988 10.1958C333.666 8.139 330.835 7.11081 327.519 7.11081C324.179 7.11081 321.361 8.139 319.061 10.1958C316.842 12.1602 315.745 14.471 315.745 17.1291V23.7383V24.7781ZM358.741 24.7781V33.144C358.741 35.7901 359.839 38.1015 362.057 40.0883C364.356 42.1337 367.175 43.1622 370.515 43.1622C373.831 43.1622 376.662 42.1337 378.985 40.0883C379.436 39.6727 379.817 39.2798 380.129 38.8986C381.446 37.2689 383.064 36.9339 385.005 37.8818L387.952 39.372C386.958 41.6252 385.502 43.6015 383.584 45.2998C379.955 48.5239 375.599 50.1416 370.515 50.1416C365.396 50.1416 361.028 48.5239 357.423 45.2998C353.645 41.9373 351.762 37.8818 351.762 33.144V24.7781V23.7383V17.1291C351.762 12.3685 353.645 8.32381 357.423 4.97321C361.052 1.72561 365.42 0.10791 370.515 0.10791C375.577 0.10791 379.932 1.72561 383.584 4.97321C385.502 6.67151 386.958 8.63561 387.952 10.8662L385.005 12.3566C383.087 13.3505 381.469 13.027 380.129 11.3742C379.817 11.0161 379.436 10.6233 378.985 10.1958C376.662 8.139 373.831 7.11081 370.515 7.11081C367.175 7.11081 364.356 8.139 362.057 10.1958C359.839 12.1602 358.741 14.471 358.741 17.1291V23.7383V24.7781ZM413.246 9.07471H411.721L404.845 28.5102H420.121L413.246 9.07471ZM422.582 35.478H402.338L397.531 49.0897H393.198C392.227 49.0897 391.58 48.7663 391.245 48.1078C390.968 47.4949 390.968 46.7673 391.245 45.9123L405.862 4.63791C406.266 3.47091 407.11 2.56951 408.381 1.96851C409.664 1.35601 411.016 1.05582 412.46 1.05582C413.881 1.05582 415.233 1.35601 416.516 1.96851C417.787 2.56951 418.642 3.47091 419.069 4.63791L434.842 49.0897H430.105C428.301 49.0897 427.089 48.2112 426.476 46.4441L422.582 35.478Z" stroke="#033C1E" stroke-width="0.216" stroke-miterlimit="22.9256"/>
<path fill-rule="evenodd" clip-rule="evenodd" d="M216.071 20.5547C210.075 24.8861 201.495 23.6363 193.942 22.535C189.595 21.9015 185.596 21.3187 182.755 21.91C180.667 22.3448 178.858 23.3897 177.377 25.0176C176.222 26.2875 175.262 27.9157 174.518 29.8889C179.941 26.2407 188.377 27.5056 195.556 28.5827C199.175 29.1256 202.469 29.6194 204.793 29.3934C207.922 29.0896 210.368 28.2502 212.279 26.586C213.859 25.2101 215.095 23.2542 216.071 20.5547Z" fill="#93C11C"/>
<path d="M178.706 61.3638L178.483 62.4234C178.023 62.2003 177.544 62.0333 177.042 61.9217C176.541 61.8103 176.01 61.7547 175.455 61.7547C173.929 61.7547 172.714 62.2184 171.807 63.1454C170.901 64.0757 170.449 65.317 170.449 66.8752C170.449 68.4805 170.921 69.7541 171.863 70.702C172.808 71.6499 174.079 72.125 175.678 72.125C176.109 72.125 176.509 72.087 176.881 72.0133C177.254 71.9404 177.606 71.8259 177.932 71.6788V67.4591H175.133V66.4732H179.076V72.4359C178.536 72.6562 177.976 72.8203 177.395 72.9292C176.811 73.0377 176.206 73.0933 175.575 73.0933C174.754 73.0933 174.017 72.9992 173.368 72.809C172.717 72.621 172.124 72.3276 171.591 71.9314C170.822 71.365 170.234 70.6521 169.827 69.7921C169.419 68.9295 169.216 67.9699 169.216 66.9104C169.216 66.2031 169.313 65.5372 169.504 64.9091C169.698 64.2812 169.994 63.6828 170.396 63.1074C170.894 62.3797 171.591 61.8074 172.485 61.3904C173.38 60.9766 174.363 60.7682 175.438 60.7682C176.027 60.7682 176.593 60.8187 177.136 60.9154C177.68 61.0151 178.202 61.1645 178.706 61.3638ZM186.999 60.8215H192.95V61.7898H188.126V66.1912H192.686V67.2128H188.126V71.9841H193.055V73.0406H186.999V60.8215ZM200.922 60.8215H202.365L208.34 71.0716C208.381 71.1328 208.431 71.2389 208.495 71.3797C208.557 71.5237 208.631 71.7026 208.71 71.9138C208.674 71.6964 208.648 71.4943 208.628 71.3123C208.607 71.1272 208.598 70.9659 208.598 70.8222V60.8215H209.654V73.0406H208.287L202.227 62.7054C202.16 62.5847 202.096 62.4529 202.037 62.3089C201.981 62.1652 201.925 61.9954 201.875 61.8018C201.91 62.0829 201.934 62.3151 201.952 62.5028C201.969 62.6879 201.978 62.814 201.978 62.8752V73.0406H200.922V60.8215ZM216.435 60.8215H224.71V61.8774H221.136V73.0406H220.01V61.8774H216.435V60.8215ZM231.486 60.8215H232.613V71.9841H237.49V73.0406H231.486V60.8215ZM244.112 60.8215H250.063V61.7898H245.239V66.1912H249.799V67.2128H245.239V71.9841H250.169V73.0406H244.112V60.8215ZM258.035 60.8215H259.746L263.863 70.8746C263.925 71.0158 263.98 71.1771 264.027 71.3503C264.071 71.5266 264.112 71.7258 264.148 71.9489C264.162 71.7701 264.191 71.5994 264.232 71.4325C264.273 71.2655 264.327 71.1039 264.397 70.9426L268.728 60.8215H270.395V73.0406H269.339V62.7378C269.339 62.723 269.336 62.676 269.33 62.6023C269.324 62.5266 269.321 62.4557 269.321 62.3854C269.321 62.2712 269.33 62.1566 269.344 62.039C269.356 61.9217 269.38 61.7955 269.406 61.6634C269.271 61.963 269.151 62.2474 269.045 62.5237C269.036 62.5524 269.028 62.5699 269.021 62.5762L264.602 73.0406H263.622L259.273 62.5762C259.244 62.5118 259.177 62.3089 259.074 61.9659C259.038 61.8395 259.012 61.74 258.988 61.6634C259.006 61.8689 259.026 62.092 259.053 62.3293C259.08 62.5671 259.091 62.7054 259.091 62.7378V73.0406H258.035V60.8215ZM282.881 61.8366L280.145 68.6919H285.521L282.881 61.8366ZM282.208 60.8215H283.602L288.444 73.0406H287.215L285.924 69.7127H279.688L278.408 73.0406H277.246L282.208 60.8215ZM295.011 60.8215H296.455L302.43 71.0716C302.471 71.1328 302.52 71.2389 302.585 71.3797C302.647 71.5237 302.72 71.7026 302.8 71.9138C302.764 71.6964 302.738 71.4943 302.717 71.3123C302.696 71.1272 302.688 70.9659 302.688 70.8222V60.8215H303.744V73.0406H302.376L296.317 62.7054C296.25 62.5847 296.185 62.4529 296.126 62.3089C296.071 62.1652 296.015 61.9954 295.965 61.8018C296 62.0829 296.024 62.3151 296.041 62.5028C296.059 62.6879 296.067 62.814 296.067 62.8752V73.0406H295.011V60.8215ZM321.875 60.8215H327.562V61.7898H323.002V66.1912H327.369V67.2128H323.002V73.0406H321.875V60.8215ZM338.237 61.8366L335.502 68.6919H340.878L338.237 61.8366ZM337.565 60.8215H338.959L343.801 73.0406H342.572L341.28 69.7127H335.045L333.765 73.0406H332.603L337.565 60.8215ZM351.495 61.8423V66.3848H352.897C353.822 66.3848 354.543 66.1708 355.063 65.7428C355.583 65.3113 355.844 64.7155 355.844 63.9552C355.844 63.2452 355.606 62.7139 355.127 62.365C354.652 62.0158 353.93 61.8423 352.959 61.8423H351.495ZM350.368 60.8215H353.079C354.391 60.8215 355.386 61.0826 356.061 61.6079C356.739 62.1328 357.076 62.9075 357.076 63.9348C357.076 64.6945 356.836 65.3374 356.354 65.8536C355.873 66.3735 355.192 66.7258 354.312 66.9075C354.673 66.9897 354.972 67.1453 355.216 67.3769C355.456 67.6091 355.697 67.9929 355.938 68.5332L357.936 73.0406H356.674L354.861 68.7914C354.638 68.2869 354.365 67.9286 354.045 67.7202C353.722 67.5116 353.27 67.4064 352.692 67.4064H351.495V73.0406H350.368V60.8215ZM364.858 60.8215H366.568L370.686 70.8746C370.748 71.0158 370.803 71.1771 370.85 71.3503C370.894 71.5266 370.935 71.7258 370.971 71.9489C370.985 71.7701 371.014 71.5994 371.055 71.4325C371.096 71.2655 371.149 71.1039 371.22 70.9426L375.551 60.8215H377.218V73.0406H376.161V62.7378C376.161 62.723 376.158 62.676 376.153 62.6023C376.147 62.5266 376.144 62.4557 376.144 62.3854C376.144 62.2712 376.153 62.1566 376.167 62.039C376.179 61.9217 376.203 61.7955 376.229 61.6634C376.094 61.963 375.973 62.2474 375.868 62.5237C375.859 62.5524 375.85 62.5699 375.844 62.5762L371.425 73.0406H370.445L366.096 62.5762C366.067 62.5118 365.999 62.3089 365.896 61.9659C365.861 61.8395 365.835 61.74 365.811 61.6634C365.829 61.8689 365.849 62.092 365.876 62.3293C365.903 62.5671 365.914 62.7054 365.914 62.7378V73.0406H364.858V60.8215ZM385.495 60.8215H391.447V61.7898H386.622V66.1912H391.182V67.2128H386.622V71.9841H391.552V73.0406H385.495V60.8215ZM400.545 61.8423V66.3848H401.948C402.872 66.3848 403.594 66.1708 404.113 65.7428C404.633 65.3113 404.894 64.7155 404.894 63.9552C404.894 63.2452 404.656 62.7139 404.178 62.365C403.702 62.0158 402.981 61.8423 402.01 61.8423H400.545ZM399.419 60.8215H402.13C403.442 60.8215 404.436 61.0826 405.111 61.6079C405.789 62.1328 406.127 62.9075 406.127 63.9348C406.127 64.6945 405.886 65.3374 405.405 65.8536C404.923 66.3735 404.242 66.7258 403.362 66.9075C403.723 66.9897 404.023 67.1453 404.266 67.3769C404.507 67.6091 404.747 67.9929 404.988 68.5332L406.986 73.0406H405.725L403.911 68.7914C403.688 68.2869 403.415 67.9286 403.095 67.7202C402.772 67.5116 402.32 67.4064 401.742 67.4064H400.545V73.0406H399.419V60.8215Z" fill="#1A1A18"/>
</svg>
