<svg width="365" height="267" viewBox="0 0 365 267" fill="none" xmlns="http://www.w3.org/2000/svg">
<path d="M41 158H213.5" stroke="#3F9E46" stroke-width="10" stroke-linecap="round"/>
<path d="M46 83H132" stroke="#3F9E46" stroke-width="10" stroke-linecap="round"/>
<path d="M46 48H207" stroke="#3F9E46" stroke-width="10" stroke-linecap="round"/>
<path d="M11 11V175.132C11 185.021 18.8923 193.057 28.7815 193.122C79.9083 193.455 224.196 194.278 232.5 193C242.604 191.445 242.604 175.5 242.604 175.5" stroke="#3F9E46" stroke-width="8" stroke-linecap="round"/>
<path d="M41.5 13H222.127C232.068 13 240.127 21.0589 240.127 31V88.1546M240.127 88.1546H187.44C177.202 88.1546 168.902 96.4544 168.902 106.693C168.902 116.931 177.202 125.231 187.44 125.231H240.127C240.127 125.231 248.784 149.318 261.193 158.299C272.588 166.546 292.793 167.819 292.793 167.819M240.127 88.1546H275.244C321.225 88.1546 358.5 125.43 358.5 171.411C358.5 217.129 321.634 254.294 275.917 254.664L131.649 255.831C118.258 255.939 108.395 248.699 109.201 235.332C109.464 230.984 109.94 225.742 110.718 219.425M110.718 219.425C146.173 219.425 199.498 219.425 199.498 219.425M110.718 219.425C108.21 219.425 96.4117 220.779 89.6519 214.915C83.4719 209.555 82.1403 203.992 83.1313 195.876" stroke="#3F9E46" stroke-width="8" stroke-linecap="round"/>
</svg>
