<svg width="85" height="85" viewBox="0 0 85 85" fill="none" xmlns="http://www.w3.org/2000/svg">
<path d="M39.5 40H44.5V43V42.94L39.5 40Z" fill="#3F9E46"/>
<path d="M42 82.5C42 72.4901 42 66.3672 42 57.2601C42 54.7766 41.5641 52.2993 40.4864 50.0619C39.6693 48.3656 38.6036 46.3906 37.5 45C33.0093 39.3418 25.1708 38 17.9471 38H6C6 44.5986 6.75027 51.6002 11.0968 56.565C11.3925 56.9029 11.6943 57.2174 12 57.5C14.9525 60.2292 17.1399 61.3749 21 62.5C25.874 63.9207 34 62.5 34 62.5" stroke="#3F9E46" stroke-width="5"/>
<path d="M42 37.5C42 27.7731 42 32.0437 42 26.2678C42 23.7843 42.4359 21.2993 43.5136 19.0619C44.3307 17.3656 45.3964 15.3906 46.5 14C50.9907 8.34183 58.8292 7 66.0529 7H78C78 13.5986 77.2497 20.6002 72.9032 25.565C72.6075 25.9029 72.3057 26.2174 72 26.5C69.0475 29.2292 66.8601 30.3749 63 31.5C58.126 32.9207 50 31.5 50 31.5" stroke="#3F9E46" stroke-width="5" stroke-linecap="square"/>
</svg>
