<svg width="119" height="116" viewBox="0 0 119 116" fill="none" xmlns="http://www.w3.org/2000/svg">
<path d="M56.55 65.25C56.55 65.25 65.874 50.7512 78.3 55.1001C90.7261 59.449 89.175 73.9503 89.175 73.9503" stroke="#3F9E46" stroke-width="7.25"/>
<path d="M33.3499 58.7252L23.925 6.5252L8.69995 5.0752" stroke="#3F9E46" stroke-width="7.25" stroke-linecap="round"/>
<path d="M102.225 94.9758H106.575C109.171 94.9758 111.518 93.3145 112.018 90.7678C112.224 89.7232 112.375 88.6415 112.375 87.7258C112.375 86.6918 112.182 85.4461 111.936 84.2812C111.43 81.8774 109.492 80.0971 107.116 79.4697L36.558 60.8316C34.9156 60.3978 33.208 60.2422 31.5248 60.4715C30.6731 60.5876 29.7506 60.7333 29.0002 60.9008C24.1743 61.9778 21.4031 63.073 17.4002 65.9758C12.1735 69.7661 9.43857 72.9516 7.25023 79.0258C5.69251 83.3495 6.16343 89.7054 6.68154 93.6137C6.95214 95.6549 8.72516 97.0987 10.7842 97.0987H17.4002" stroke="#3F9E46" stroke-width="7.25"/>
<circle cx="89.9001" cy="97.1501" r="9.425" stroke="#3F9E46" stroke-width="7.25"/>
<circle cx="30.4499" cy="97.1501" r="9.425" stroke="#3F9E46" stroke-width="7.25"/>
<path d="M42.7749 97.1499H77.5749" stroke="#3F9E46" stroke-width="7.25"/>
</svg>
