<svg width="125" height="116" viewBox="0 0 125 116" fill="none" xmlns="http://www.w3.org/2000/svg">
<path d="M52.1265 108.658V99.8478L60 88L68.2784 99.8478V109.392" stroke="#3F9E46" stroke-width="4" stroke-linecap="round"/>
<path d="M24.9619 41.8481H96.9113" stroke="#3F9E46" stroke-width="4" stroke-linecap="round"/>
<path d="M76.3544 12.481L74.4932 23.6479C74.3266 24.6475 75.1988 25.5114 76.1968 25.3353L86.6329 23.4936" stroke="#3F9E46" stroke-width="4" stroke-linecap="round"/>
<path d="M35.916 24.3398L47.1811 25.4631C48.1896 25.5636 48.9943 24.6366 48.7529 23.6523L46.2294 13.3598" stroke="#3F9E46" stroke-width="4" stroke-linecap="round"/>
<path d="M52.8608 16.8864V10.2788C52.8608 6.22403 56.1479 2.93701 60.2026 2.93701H62.4051C66.4599 2.93701 69.7469 6.22403 69.7469 10.2788V16.8864" stroke="#3F9E46" stroke-width="4" stroke-linecap="round"/>
<path d="M82.2279 84.4307L100.582 89.5699C100.582 89.5699 110.743 93.4337 113.063 99.1142C114.798 103.361 114.532 110.861 114.532 110.861H6.60767V106.83C6.60767 101.999 8.96633 97.4504 13.0693 94.9008C15.2857 93.5235 17.7327 92.0814 19.8229 91.0383C28.633 86.6414 37.4431 84.4307 37.4431 84.4307" stroke="#3F9E46" stroke-width="4" stroke-linecap="round"/>
<path d="M38.9114 71.2153V83.6963L52.1266 99.8482H67.5443L82.962 83.6963V73" stroke="#3F9E46" stroke-width="4" stroke-linecap="round"/>
<path d="M91.7725 40.3796C91.7725 40.3796 91.2754 27.7203 87.3676 20.5568C82.962 12.4809 71.9498 10.2783 71.9498 10.2783H70.481" stroke="#3F9E46" stroke-width="4" stroke-linecap="round"/>
<path d="M30.8354 40.3796C30.8354 40.3796 31.3325 27.7203 35.2403 20.5568C39.6459 12.4809 50.6581 10.2783 50.6581 10.2783H52.1269" stroke="#3F9E46" stroke-width="4" stroke-linecap="round"/>
<path d="M32.3037 43.3164V50.9749C32.3037 58.7636 35.3977 66.2332 40.9051 71.7406L54.329 85.1645H66.0759C66.0759 85.1645 84.4957 74.7568 88.1012 63.1392C90.3957 55.7458 88.1012 43.3164 88.1012 43.3164" stroke="#3F9E46" stroke-width="4" stroke-linecap="round"/>
</svg>
